<svg width="128" height="128" viewBox="0 0 128 128" fill="none" xmlns="http://www.w3.org/2000/svg">
<path d="M63.8854 64.1355L64.0208 64V101.333L57.0729 70.9532L26.6771 64L57.0729 57.0469L63.9791 26.8438V26.6667L64 26.7552L64.0208 26.6667V26.8438L70.9271 57.0469L101.323 64H64.0104L63.8854 64.1355Z" fill="#0F172A"/>
<path d="M70.9271 70.9532L101.323 64H63.9896L64.1146 64.1355L63.9791 64V101.333L70.9271 70.9532Z" fill="#0F172A"/>
<path d="M69.3333 10.6667C69.3333 13.6122 66.9455 16 64 16C61.0545 16 58.6666 13.6122 58.6666 10.6667C58.6666 7.72119 61.0545 5.33337 64 5.33337C66.9455 5.33337 69.3333 7.72119 69.3333 10.6667Z" fill="#0F172A"/>
<path d="M69.3333 117.333C69.3333 120.279 66.9455 122.667 64 122.667C61.0545 122.667 58.6666 120.279 58.6666 117.333C58.6666 114.388 61.0545 112 64 112C66.9455 112 69.3333 114.388 69.3333 117.333Z" fill="#0F172A"/>
<path d="M117.333 69.3334C114.388 69.3334 112 66.9456 112 64C112 61.0545 114.388 58.6667 117.333 58.6667C120.279 58.6667 122.667 61.0545 122.667 64C122.667 66.9456 120.279 69.3334 117.333 69.3334Z" fill="#0F172A"/>
<path d="M10.6666 69.3334C7.72113 69.3334 5.33331 66.9456 5.33331 64C5.33331 61.0545 7.72113 58.6667 10.6666 58.6667C13.6122 58.6667 16 61.0545 16 64C16 66.9456 13.6122 69.3334 10.6666 69.3334Z" fill="#0F172A"/>
<path d="M97.9363 105.476C95.8535 103.393 95.8535 100.016 97.9363 97.9332C100.019 95.8504 103.396 95.8504 105.479 97.9332C107.562 100.016 107.562 103.393 105.479 105.476C103.396 107.559 100.019 107.559 97.9363 105.476Z" fill="#0F172A"/>
<path d="M22.5092 30.0512C20.4264 27.9684 20.4264 24.5915 22.5092 22.5088C24.592 20.426 27.9689 20.426 30.0517 22.5088C32.1345 24.5915 32.1345 27.9684 30.0517 30.0512C27.9689 32.134 24.592 32.134 22.5092 30.0512Z" fill="#0F172A"/>
<path d="M22.4996 97.9415C24.5824 95.8587 27.9593 95.8587 30.042 97.9415C32.1248 100.024 32.1248 103.401 30.042 105.484C27.9593 107.567 24.5824 107.567 22.4996 105.484C20.4168 103.401 20.4168 100.024 22.4996 97.9415Z" fill="#0F172A"/>
<path d="M97.9162 22.5171C99.999 20.4343 103.376 20.4343 105.459 22.5171C107.542 24.5999 107.542 27.9767 105.459 30.0595C103.376 32.1423 99.999 32.1423 97.9162 30.0595C95.8334 27.9767 95.8334 24.5999 97.9162 22.5171Z" fill="#0F172A"/>
</svg>
