<svg width="24" height="24" viewBox="0 0 24 24" fill="none" xmlns="http://www.w3.org/2000/svg">
<g style="mix-blend-mode:luminosity">
<path d="M18.4595 17.3514C18.4595 18.8108 17.8829 19.9459 16.7297 20.7568C15.5946 21.5856 14.009 22 11.973 22C11.018 22 10.009 21.8919 8.94595 21.6757C7.88288 21.4595 6.9009 21.0991 6 20.5946L6.89189 18.1351C7.75676 18.5676 8.61261 18.8739 9.45946 19.0541C10.3063 19.2523 11.1351 19.3514 11.9459 19.3514C13.0811 19.3514 13.9459 19.1982 14.5405 18.8919C15.1351 18.5856 15.4324 18.1802 15.4324 17.6757C15.4324 16.9009 14.973 16.5135 14.0541 16.5135H10.8108C9.92793 16.5135 9.21622 16.3694 8.67568 16.0811C8.13514 15.7928 7.73874 15.4234 7.48649 14.973C7.23423 14.5045 7.10811 14.018 7.10811 13.5135C7.10811 12.991 7.21622 12.5045 7.43243 12.0541C7.66667 11.5856 7.98198 11.1532 8.37838 10.7568C7.72973 10.3604 7.20721 9.82883 6.81081 9.16216C6.43243 8.4955 6.24324 7.6937 6.24324 6.75676C6.24324 5.6937 6.46847 4.81081 6.91892 4.10811C7.36937 3.40541 7.98198 2.88288 8.75676 2.54054C9.54955 2.18018 10.4234 2 11.3784 2H11.8378C12.1982 2 12.5495 2.02703 12.8919 2.08108C13.2342 2.11712 13.5586 2.18018 13.8649 2.27027H18.7568V4.91892L16.0541 4.48649C16.3243 4.77478 16.5315 5.13514 16.6757 5.56757C16.8378 5.98198 16.9189 6.4955 16.9189 7.10811C16.9189 8.02703 16.6847 8.81982 16.2162 9.48649C15.7658 10.1351 15.1532 10.6396 14.3784 11C13.6216 11.3423 12.7748 11.5135 11.8378 11.5135H11.3784C11.018 11.5135 10.6757 11.4865 10.3514 11.4324C10.1532 11.6487 10.009 11.8739 9.91892 12.1081C9.82883 12.3243 9.78378 12.5315 9.78378 12.7297C9.78378 13.3604 10.1892 13.6757 11 13.6757H14.2973C15.5405 13.6757 16.5405 14 17.2973 14.6486C18.0721 15.2793 18.4595 16.1802 18.4595 17.3514ZM11.8378 8.97297C12.3964 8.97297 12.8829 8.78379 13.2973 8.40541C13.7297 8.02703 13.9459 7.47748 13.9459 6.75676C13.9459 6.03604 13.7297 5.48649 13.2973 5.10811C12.8829 4.72973 12.3964 4.54054 11.8378 4.54054H11.3784C10.8018 4.54054 10.2973 4.72973 9.86486 5.10811C9.45045 5.48649 9.24324 6.03604 9.24324 6.75676C9.24324 7.47748 9.45045 8.02703 9.86486 8.40541C10.2973 8.78379 10.8018 8.97297 11.3784 8.97297H11.8378Z" fill="white"/>
</g>
</svg>
