<svg width="24" height="24" viewBox="0 0 24 24" fill="none" xmlns="http://www.w3.org/2000/svg">
<g style="mix-blend-mode:luminosity">
<path d="M18.4595 17.3514C18.4595 18.8108 17.8829 19.9459 16.7298 20.7568C15.5946 21.5856 14.009 22 11.973 22C11.018 22 10.009 21.8919 8.94597 21.6757C7.88291 21.4595 6.90092 21.0991 6.00002 20.5946L6.89191 18.1351C7.75678 18.5676 8.61264 18.8739 9.45948 19.0541C10.3063 19.2523 11.1352 19.3514 11.946 19.3514C13.0811 19.3514 13.946 19.1982 14.5406 18.8919C15.1352 18.5856 15.4325 18.1802 15.4325 17.6757C15.4325 16.9009 14.973 16.5135 14.0541 16.5135H10.8108C9.92795 16.5135 9.21624 16.3694 8.6757 16.0811C8.13516 15.7928 7.73876 15.4234 7.48651 14.973C7.23426 14.5045 7.10813 14.018 7.10813 13.5135C7.10813 12.991 7.21624 12.5045 7.43246 12.0541C7.66669 11.5856 7.982 11.1532 8.3784 10.7568C7.72975 10.3604 7.20723 9.82883 6.81083 9.16216C6.43246 8.4955 6.24327 7.6937 6.24327 6.75676C6.24327 5.6937 6.46849 4.81081 6.91894 4.10811C7.36939 3.40541 7.982 2.88288 8.75678 2.54054C9.54957 2.18018 10.4234 2 11.3784 2H11.8379C12.1982 2 12.5496 2.02703 12.8919 2.08108C13.2343 2.11712 13.5586 2.18018 13.8649 2.27027H18.7568V4.91892L16.0541 4.48649C16.3243 4.77478 16.5316 5.13514 16.6757 5.56757C16.8379 5.98198 16.9189 6.4955 16.9189 7.10811C16.9189 8.02703 16.6847 8.81982 16.2162 9.48649C15.7658 10.1351 15.1532 10.6396 14.3784 11C13.6216 11.3423 12.7748 11.5135 11.8379 11.5135H11.3784C11.018 11.5135 10.6757 11.4865 10.3514 11.4324C10.1532 11.6487 10.009 11.8739 9.91894 12.1081C9.82885 12.3243 9.78381 12.5315 9.78381 12.7297C9.78381 13.3604 10.1892 13.6757 11 13.6757H14.2973C15.5406 13.6757 16.5406 14 17.2973 14.6486C18.0721 15.2793 18.4595 16.1802 18.4595 17.3514ZM11.8379 8.97297C12.3964 8.97297 12.8829 8.78379 13.2973 8.40541C13.7298 8.02703 13.946 7.47748 13.946 6.75676C13.946 6.03604 13.7298 5.48649 13.2973 5.10811C12.8829 4.72973 12.3964 4.54054 11.8379 4.54054H11.3784C10.8018 4.54054 10.2973 4.72973 9.86489 5.10811C9.45047 5.48649 9.24327 6.03604 9.24327 6.75676C9.24327 7.47748 9.45047 8.02703 9.86489 8.40541C10.2973 8.78379 10.8018 8.97297 11.3784 8.97297H11.8379Z" fill="#0F172A"/>
</g>
</svg>
